<svg xmlns="http://www.w3.org/2000/svg" viewBox="0 0 1600 900" role="img" aria-labelledby="title desc">
  <title id="title">RAG app interface</title>
  <desc id="desc">Mock screenshot of retrieval augmented chat with citations and chunk viewer.</desc>
  <defs>
    <linearGradient id="bg" x1="0" y1="0" x2="1" y2="1">
      <stop offset="0" stop-color="#f8fafc"/>
      <stop offset="1" stop-color="#ecfeff"/>
    </linearGradient>
  </defs>
  <rect width="1600" height="900" fill="url(#bg)"/>
  <rect x="60" y="50" width="1480" height="800" rx="26" fill="#ffffff" stroke="#dbe3ec"/>
  <rect x="60" y="50" width="1480" height="74" rx="26" fill="#083344"/>
  <text x="120" y="98" fill="#ccfbf1" font-family="Segoe UI, Arial" font-size="30">RAG Knowledge Assistant</text>
  <rect x="105" y="160" width="880" height="650" rx="20" fill="#ffffff" stroke="#e2e8f0"/>
  <text x="145" y="208" fill="#0f172a" font-family="Segoe UI, Arial" font-size="29">Conversation</text>
  <rect x="145" y="240" width="800" height="88" rx="14" fill="#e0f2fe"/>
  <rect x="145" y="350" width="760" height="88" rx="14" fill="#f1f5f9"/>
  <rect x="145" y="460" width="810" height="120" rx="14" fill="#dbeafe"/>
  <rect x="145" y="610" width="800" height="150" rx="14" fill="#eff6ff"/>
  <rect x="1020" y="160" width="475" height="310" rx="20" fill="#ffffff" stroke="#e2e8f0"/>
  <text x="1060" y="208" fill="#0f172a" font-family="Segoe UI, Arial" font-size="29">Citations</text>
  <rect x="1060" y="240" width="395" height="50" rx="12" fill="#dcfce7"/>
  <rect x="1060" y="304" width="395" height="50" rx="12" fill="#dcfce7"/>
  <rect x="1060" y="368" width="395" height="50" rx="12" fill="#dcfce7"/>
  <rect x="1020" y="500" width="475" height="310" rx="20" fill="#ffffff" stroke="#e2e8f0"/>
  <text x="1060" y="548" fill="#0f172a" font-family="Segoe UI, Arial" font-size="29">Retrieved chunks</text>
  <rect x="1060" y="580" width="395" height="36" rx="10" fill="#f1f5f9"/>
  <rect x="1060" y="630" width="395" height="36" rx="10" fill="#f1f5f9"/>
  <rect x="1060" y="680" width="395" height="36" rx="10" fill="#f1f5f9"/>
  <rect x="1060" y="730" width="395" height="36" rx="10" fill="#f1f5f9"/>
</svg>
