<svg xmlns="http://www.w3.org/2000/svg" viewBox="0 0 1600 900" role="img" aria-labelledby="title desc">
  <title id="title">Assistant app dashboard</title>
  <desc id="desc">Mock screenshot showing production assistant app with chat and action widgets.</desc>
  <defs>
    <linearGradient id="bg" x1="0" y1="0" x2="1" y2="1">
      <stop offset="0" stop-color="#f8fafc"/>
      <stop offset="1" stop-color="#eef2ff"/>
    </linearGradient>
  </defs>
  <rect width="1600" height="900" fill="url(#bg)"/>
  <rect x="60" y="50" width="1480" height="800" rx="26" fill="#ffffff" stroke="#dbe3ec"/>
  <rect x="60" y="50" width="1480" height="72" rx="26" fill="#1f2937"/>
  <text x="120" y="98" fill="#e5e7eb" font-family="Segoe UI, Arial" font-size="30">Assistant App - Live</text>
  <rect x="105" y="160" width="350" height="650" rx="20" fill="#f8fafc" stroke="#e2e8f0"/>
  <text x="145" y="208" fill="#0f172a" font-family="Segoe UI, Arial" font-size="28">Actions</text>
  <rect x="145" y="240" width="270" height="64" rx="14" fill="#dbeafe"/>
  <rect x="145" y="320" width="270" height="64" rx="14" fill="#dcfce7"/>
  <rect x="145" y="400" width="270" height="64" rx="14" fill="#fde68a"/>
  <rect x="145" y="480" width="270" height="64" rx="14" fill="#e9d5ff"/>
  <rect x="490" y="160" width="670" height="430" rx="20" fill="#ffffff" stroke="#e2e8f0"/>
  <text x="530" y="208" fill="#0f172a" font-family="Segoe UI, Arial" font-size="29">Chat</text>
  <rect x="530" y="240" width="590" height="80" rx="14" fill="#f1f5f9"/>
  <rect x="530" y="338" width="560" height="80" rx="14" fill="#e0f2fe"/>
  <rect x="530" y="436" width="590" height="110" rx="14" fill="#eff6ff"/>
  <rect x="490" y="620" width="670" height="190" rx="20" fill="#ffffff" stroke="#e2e8f0"/>
  <text x="530" y="668" fill="#0f172a" font-family="Segoe UI, Arial" font-size="29">Deploy status</text>
  <rect x="530" y="698" width="590" height="46" rx="12" fill="#dcfce7"/>
  <rect x="1195" y="160" width="300" height="650" rx="20" fill="#ffffff" stroke="#e2e8f0"/>
  <text x="1235" y="208" fill="#0f172a" font-family="Segoe UI, Arial" font-size="28">Insights</text>
  <rect x="1235" y="240" width="220" height="150" rx="14" fill="#eef2ff"/>
  <rect x="1235" y="420" width="220" height="150" rx="14" fill="#ecfeff"/>
  <rect x="1235" y="600" width="220" height="150" rx="14" fill="#f0fdf4"/>
</svg>
