<svg xmlns="http://www.w3.org/2000/svg" viewBox="0 0 1600 900" role="img" aria-labelledby="title desc">
  <title id="title">Sokoban solver app screen</title>
  <desc id="desc">Mock screenshot showing puzzle grid, path output, and solver metrics.</desc>
  <defs>
    <linearGradient id="bg" x1="0" y1="0" x2="1" y2="1">
      <stop offset="0" stop-color="#f8fafc"/>
      <stop offset="1" stop-color="#ede9fe"/>
    </linearGradient>
  </defs>
  <rect width="1600" height="900" fill="url(#bg)"/>
  <rect x="70" y="60" width="1460" height="780" rx="26" fill="#ffffff" stroke="#dbe2ec"/>
  <rect x="70" y="60" width="1460" height="72" rx="26" fill="#1e1b4b"/>
  <text x="130" y="107" fill="#ddd6fe" font-family="Segoe UI, Arial" font-size="30">Sokoban Solver</text>
  <rect x="120" y="170" width="620" height="620" rx="20" fill="#f8fafc" stroke="#e2e8f0"/>
  <g transform="translate(145,195)">
    <rect x="0" y="0" width="570" height="570" rx="14" fill="#e2e8f0"/>
    <g fill="#475569">
      <rect x="20" y="20" width="65" height="65"/>
      <rect x="90" y="20" width="65" height="65"/>
      <rect x="160" y="20" width="65" height="65"/>
      <rect x="230" y="20" width="65" height="65"/>
      <rect x="300" y="20" width="65" height="65"/>
      <rect x="370" y="20" width="65" height="65"/>
      <rect x="440" y="20" width="65" height="65"/>
    </g>
    <rect x="160" y="160" width="65" height="65" fill="#fbbf24"/>
    <rect x="230" y="160" width="65" height="65" fill="#f59e0b"/>
    <rect x="300" y="160" width="65" height="65" fill="#86efac"/>
    <circle cx="332" cy="332" r="28" fill="#3b82f6"/>
  </g>
  <rect x="780" y="170" width="700" height="280" rx="20" fill="#ffffff" stroke="#e2e8f0"/>
  <text x="820" y="220" fill="#1e293b" font-family="Segoe UI, Arial" font-size="30">Search output</text>
  <rect x="820" y="248" width="620" height="34" rx="10" fill="#f1f5f9"/>
  <rect x="820" y="295" width="620" height="34" rx="10" fill="#f1f5f9"/>
  <rect x="820" y="342" width="620" height="34" rx="10" fill="#f1f5f9"/>
  <rect x="780" y="480" width="330" height="310" rx="20" fill="#ffffff" stroke="#e2e8f0"/>
  <text x="820" y="528" fill="#1e293b" font-family="Segoe UI, Arial" font-size="28">Metrics</text>
  <rect x="820" y="560" width="250" height="36" rx="10" fill="#dbeafe"/>
  <rect x="820" y="610" width="250" height="36" rx="10" fill="#dcfce7"/>
  <rect x="820" y="660" width="250" height="36" rx="10" fill="#fde68a"/>
  <rect x="1150" y="480" width="330" height="310" rx="20" fill="#ffffff" stroke="#e2e8f0"/>
  <text x="1190" y="528" fill="#1e293b" font-family="Segoe UI, Arial" font-size="28">Code</text>
  <rect x="1190" y="560" width="250" height="18" rx="9" fill="#cbd5e1"/>
  <rect x="1190" y="592" width="220" height="18" rx="9" fill="#cbd5e1"/>
  <rect x="1190" y="624" width="250" height="18" rx="9" fill="#cbd5e1"/>
  <rect x="1190" y="656" width="200" height="18" rx="9" fill="#cbd5e1"/>
</svg>
