<svg xmlns="http://www.w3.org/2000/svg" viewBox="0 0 1600 900" role="img" aria-labelledby="title desc">
  <title id="title">GitHub style project activity</title>
  <desc id="desc">Mock screenshot showing repository activity, pull requests, and deployment checks.</desc>
  <defs>
    <linearGradient id="bg" x1="0" y1="0" x2="1" y2="1">
      <stop offset="0" stop-color="#f8fafc"/>
      <stop offset="1" stop-color="#eef2ff"/>
    </linearGradient>
  </defs>
  <rect width="1600" height="900" fill="url(#bg)"/>
  <rect x="60" y="50" width="1480" height="800" rx="28" fill="#ffffff" stroke="#dbe2ea"/>
  <rect x="60" y="50" width="1480" height="70" rx="28" fill="#0f172a"/>
  <circle cx="110" cy="85" r="10" fill="#fb7185"/>
  <circle cx="140" cy="85" r="10" fill="#fbbf24"/>
  <circle cx="170" cy="85" r="10" fill="#34d399"/>
  <text x="230" y="94" fill="#cbd5e1" font-family="Segoe UI, Arial" font-size="26">github.com / ai-bootcamp / sokoban-solver</text>
  <rect x="100" y="160" width="320" height="650" rx="16" fill="#f8fafc" stroke="#e2e8f0"/>
  <text x="130" y="205" fill="#334155" font-family="Segoe UI, Arial" font-size="26">Repository</text>
  <rect x="130" y="230" width="260" height="14" rx="7" fill="#bfdbfe"/>
  <rect x="130" y="270" width="230" height="14" rx="7" fill="#c7d2fe"/>
  <rect x="130" y="310" width="250" height="14" rx="7" fill="#d1fae5"/>
  <rect x="130" y="350" width="210" height="14" rx="7" fill="#fde68a"/>
  <text x="130" y="410" fill="#64748b" font-family="Segoe UI, Arial" font-size="21">Main branches</text>
  <rect x="130" y="430" width="260" height="45" rx="10" fill="#e2e8f0"/>
  <rect x="130" y="490" width="260" height="45" rx="10" fill="#e2e8f0"/>
  <rect x="450" y="160" width="1040" height="290" rx="18" fill="#ffffff" stroke="#e2e8f0"/>
  <text x="490" y="205" fill="#1e293b" font-family="Segoe UI, Arial" font-size="30">Pull requests</text>
  <text x="1280" y="205" fill="#059669" font-family="Segoe UI, Arial" font-size="24">4 merged</text>
  <rect x="490" y="240" width="960" height="55" rx="12" fill="#f1f5f9"/>
  <rect x="490" y="310" width="960" height="55" rx="12" fill="#f1f5f9"/>
  <rect x="490" y="380" width="960" height="55" rx="12" fill="#f1f5f9"/>
  <rect x="450" y="480" width="500" height="330" rx="18" fill="#ffffff" stroke="#e2e8f0"/>
  <text x="490" y="525" fill="#1e293b" font-family="Segoe UI, Arial" font-size="30">Commit graph</text>
  <polyline points="500,730 580,670 650,690 740,610 820,630 900,560" fill="none" stroke="#3b82f6" stroke-width="9" stroke-linecap="round" stroke-linejoin="round"/>
  <circle cx="580" cy="670" r="9" fill="#3b82f6"/>
  <circle cx="740" cy="610" r="9" fill="#3b82f6"/>
  <circle cx="900" cy="560" r="9" fill="#3b82f6"/>
  <rect x="990" y="480" width="500" height="330" rx="18" fill="#ffffff" stroke="#e2e8f0"/>
  <text x="1030" y="525" fill="#1e293b" font-family="Segoe UI, Arial" font-size="30">Checks</text>
  <rect x="1030" y="560" width="420" height="48" rx="12" fill="#dcfce7"/>
  <rect x="1030" y="625" width="420" height="48" rx="12" fill="#dcfce7"/>
  <rect x="1030" y="690" width="420" height="48" rx="12" fill="#dcfce7"/>
</svg>
